<?xml version="1.0" encoding="UTF-8"?>
<svg version="1.1" xmlns="http://www.w3.org/2000/svg" width="1080" height="1080">
<path d="M0 0 C1.18794363 -0.01359334 2.37588727 -0.02718668 3.5998292 -0.04119194 C6.8805061 -0.07250547 10.15993582 -0.07711953 13.44071388 -0.07002568 C16.98570364 -0.06879721 20.53040316 -0.10195662 24.07525635 -0.13037109 C31.01520258 -0.18012578 37.95484301 -0.19669641 44.89495271 -0.20004536 C50.54112197 -0.20290136 56.18719078 -0.21525487 61.83332825 -0.23424911 C77.86362173 -0.28707377 93.89367462 -0.31476894 109.92405576 -0.31026627 C111.21926962 -0.30990667 111.21926962 -0.30990667 112.54064941 -0.30953979 C113.40518795 -0.30929451 114.26972648 -0.30904923 115.16046315 -0.30879651 C129.15605886 -0.30636037 143.15068397 -0.36371268 157.14599913 -0.44836999 C171.53823652 -0.53473636 185.93000163 -0.57598081 200.32250452 -0.57080734 C208.39402414 -0.56882124 216.46452722 -0.58504484 224.53581238 -0.64987564 C231.41160647 -0.70475205 238.28592398 -0.71736317 245.16184324 -0.6768191 C248.66457552 -0.6573411 252.16448265 -0.65644114 255.66693878 -0.7089386 C270.50482617 -0.89054827 281.69309725 -0.79730131 292.89054108 9.7463398 C293.41026143 10.25999604 293.92998178 10.77365227 294.46545124 11.30287385 C297.08019064 13.7613144 299.98283778 15.70333132 302.93518066 17.73977661 C304.08482711 18.55317476 305.23339858 19.36809614 306.38049316 20.18508911 C307.2665625 20.81399048 307.2665625 20.81399048 308.17053223 21.45559692 C314.05397792 25.64850215 319.89597932 29.89967423 325.75012207 34.1333313 C328.01198896 35.7674596 330.27594374 37.39864791 332.54064941 39.02883911 C340.33002162 44.63875726 348.08995037 50.28499783 355.81018066 55.98977661 C362.3274094 60.8051459 368.88131381 65.56092134 375.48596191 70.25540161 C381.93543577 74.84217874 388.33725459 79.49561014 394.75012207 84.1333313 C397.01198896 85.7674596 399.27594374 87.39864791 401.54064941 89.02883911 C409.33002162 94.63875726 417.08995037 100.28499783 424.81018066 105.98977661 C431.3274094 110.8051459 437.88131381 115.56092134 444.48596191 120.25540161 C450.93543577 124.84217874 457.33725459 129.49561014 463.75012207 134.1333313 C466.01198896 135.7674596 468.27594374 137.39864791 470.54064941 139.02883911 C492.09501166 154.55156682 492.09501166 154.55156682 500.92980957 161.26248169 C503.01212752 162.82635097 503.01212752 162.82635097 505.20227051 164.01980591 C512.60265565 168.50649603 514.09195754 175.91707836 516.43518066 183.73977661 C516.92998467 185.3147521 517.4278124 186.88878019 517.92834473 188.46194458 C519.04011422 191.96463556 520.13808078 195.47130087 521.22912598 198.98049927 C523.18160486 205.22664484 525.22094738 211.44308941 527.27111816 217.65774536 C527.63803268 218.77049835 528.0049472 219.88325134 528.38298035 221.02972412 C529.14005402 223.32551088 529.89719086 225.62127681 530.65438843 227.91702271 C537.15675872 247.66535635 543.52685335 267.45509764 549.83642578 287.26571655 C555.64038015 305.47909199 561.58428822 323.64482711 567.56018066 341.80227661 C574.1138146 361.71625853 580.61910843 381.64380718 586.99768066 401.61477661 C587.31897949 402.62064819 587.64027832 403.62651978 587.97131348 404.66287231 C588.28165527 405.63506714 588.59199707 406.60726196 588.91174316 407.60891724 C589.21420959 408.55273758 589.51667603 409.49655792 589.82830811 410.46897888 C590.41261432 412.31287902 590.98571654 414.16037125 591.54693604 416.01142883 C592.84965035 420.27120973 594.23719907 424.31442471 596.15100098 428.34060669 C602.87252819 443.30486992 597.04504156 456.28239537 591.69565964 470.78017807 C590.40267073 474.32447434 589.17615772 477.89158442 587.94519043 481.45779419 C586.19464503 486.51535443 584.42843054 491.56675983 582.63841343 496.61048794 C578.83295959 507.3414242 575.33686309 518.15976673 571.92962646 529.0234375 C570.35286308 534.04220027 568.75199452 539.05323138 567.15002441 544.06399536 C566.82659058 545.07625687 566.50315674 546.08851837 566.16992188 547.13145447 C561.87420727 560.54586986 557.46099263 573.92207218 553.06018066 587.30227661 C547.21745916 605.06699192 541.41308776 622.84260119 535.73049927 640.65936279 C534.75893175 643.70451274 533.78525828 646.7489812 532.81091309 649.79324341 C529.84185506 659.07333764 526.88309947 668.35635373 523.95469666 677.64936829 C522.59682013 681.9475657 521.22634385 686.24167732 519.85305786 690.53497314 C519.20664422 692.56564764 518.56570535 694.59807416 517.93063354 696.63232422 C517.05687923 699.42934889 516.16432507 702.21970293 515.26721191 705.00930786 C515.01577423 705.83075287 514.76433655 706.65219788 514.50527954 707.49853516 C510.18491168 720.70955283 494.03135179 728.87757501 483.13757324 736.70266724 C477.58093023 740.69485237 472.06169851 744.734515 466.56018066 748.80227661 C460.42014895 753.33996175 454.25663171 757.84194406 448.06018066 762.30227661 C438.67237294 769.06211411 429.36321571 775.92645006 420.06018066 782.80227661 C410.01923181 790.22349156 399.95951662 797.61399467 389.82727051 804.91018677 C381.18768462 811.13890064 372.62533126 817.47181675 364.06018066 823.80227661 C354.01923181 831.22349156 343.95951662 838.61399467 333.82727051 845.91018677 C324.33876715 852.75092813 314.94001092 859.71359752 305.5357666 866.66946411 C303.84301246 867.92133599 302.14989902 869.17272217 300.4564209 870.4236145 C298.87958701 871.5883516 297.30350912 872.75411329 295.72839355 873.9211731 C294.30458316 874.97266298 292.87464823 876.01593211 291.43749738 877.04911381 C289.88069243 878.19718655 288.3534141 879.38668283 286.86267924 880.6193313 C280.22860349 885.84138704 275.2600118 886.81491974 266.94232178 886.71134949 C265.75942527 886.72438612 264.57652875 886.73742275 263.35778689 886.75085443 C260.10036549 886.77960115 256.8447366 886.77732344 253.58728409 886.76132643 C250.0641852 886.75161714 246.54139268 886.78224423 243.0184021 886.80741882 C236.12611168 886.85001171 229.23430736 886.85454219 222.34191182 886.84460539 C216.73581034 886.83698197 211.12985413 886.8419651 205.52376556 886.85580254 C204.72430782 886.85774134 203.92485008 886.85968014 203.10116635 886.86167769 C201.4767719 886.8656329 199.85237748 886.86959951 198.22798309 886.87357741 C183.00976908 886.90902107 167.79183052 886.89930976 152.57361063 886.8756225 C138.67389099 886.85536284 124.77497181 886.89078363 110.8753964 886.95275313 C96.58027659 887.0159973 82.28553253 887.04200101 67.99027324 887.02785391 C59.97378263 887.02055351 51.95794555 887.02761088 43.94156647 887.07353401 C37.11562819 887.11220959 30.29076817 887.11538414 23.46482852 887.07388277 C19.98697664 887.05368001 16.51107407 887.04900482 13.03334427 887.08853912 C-2.61626697 887.23038157 -13.44780746 887.02207144 -24.93981934 875.80227661 C-26.53875013 874.59366483 -28.15346833 873.40507548 -29.79528809 872.25540161 C-31.24006353 871.18872871 -32.68407267 870.1210171 -34.12731934 869.05227661 C-34.92065674 868.46647827 -35.71399414 867.88067993 -36.53137207 867.27713013 C-39.00156274 865.4531353 -41.47078341 863.62783414 -43.93981934 861.80227661 C-53.24249873 854.92597394 -62.55215416 848.06229879 -71.93981934 841.30227661 C-82.13323799 833.9620344 -92.23383224 826.49773303 -102.33532715 819.0317688 C-111.57786595 812.20262243 -120.84370213 805.41020731 -130.17053223 798.69656372 C-136.42607144 794.18796248 -142.6330028 789.61547056 -148.83435059 785.03274536 C-154.17839754 781.0881215 -159.54900482 777.18269546 -164.93981934 773.30227661 C-175.13338396 765.96224128 -185.23383561 758.49773055 -195.33532715 751.0317688 C-197.72375687 749.26700085 -200.11281036 747.50308295 -202.50231934 745.73977661 C-203.67516479 744.87413086 -203.67516479 744.87413086 -204.8717041 743.99099731 C-211.00072607 739.47550961 -217.16560079 735.01106048 -223.3638916 730.59109497 C-224.75427932 729.59400882 -226.13523496 728.58367073 -227.50769043 727.56204224 C-229.357075 726.22392098 -231.25515001 724.95280463 -233.17272949 723.71438599 C-242.29609464 717.61475361 -245.65991347 711.29886944 -248.56481934 700.80227661 C-249.03213741 699.25274169 -249.50468374 697.70477615 -249.98181152 696.15823364 C-251.05240322 692.67764919 -252.10179302 689.19147696 -253.14196777 685.70169067 C-255.102198 679.19599906 -257.2204287 672.7450849 -259.35388184 666.29446411 C-259.93903564 664.52505966 -259.93903564 664.52505966 -260.53601074 662.71990967 C-261.34287719 660.28183121 -262.1500511 657.84385449 -262.95751953 655.40597534 C-269.6902357 635.03409009 -276.26350603 614.61148329 -282.77319336 594.16744995 C-288.7755363 575.32606741 -294.93140403 556.53681097 -301.11401749 537.75406647 C-308.16635983 516.32809469 -315.12636963 494.87509507 -321.96716309 473.38040161 C-322.42710159 471.93618835 -322.42710159 471.93618835 -322.89633179 470.46279907 C-323.47837891 468.63324046 -324.05910569 466.80326113 -324.63833618 464.97280884 C-326.41121912 459.38697483 -328.27921115 453.84511477 -330.30871582 448.34622192 C-332.25895759 440.4848992 -329.64012322 433.93721105 -327.12731934 426.53274536 C-326.51362205 424.68118994 -325.89992862 422.82963322 -325.28639221 420.97802448 C-324.63111004 419.00691301 -323.9707902 417.03755593 -323.30895996 415.06863403 C-321.92004852 410.93583929 -320.54552473 406.79835555 -319.17419434 402.65969849 C-318.82906296 401.61824016 -318.82906296 401.61824016 -318.47695923 400.55574226 C-318.0108626 399.14919667 -317.54480837 397.74263703 -317.07879639 396.33606339 C-316.37507172 394.21346603 -315.67003606 392.09130787 -314.96472168 389.96923828 C-310.85970923 377.61079321 -306.8814828 365.21374509 -302.93981934 352.80227661 C-297.04307556 334.26806442 -291.01653801 315.77806849 -284.93981934 297.30227661 C-279.09711984 279.53755391 -273.29272652 261.7619523 -267.61013794 243.94519043 C-266.63857042 240.90004049 -265.66489695 237.85557202 -264.69055176 234.81130981 C-261.72149373 225.53121558 -258.76273814 216.24819949 -255.83433533 206.95518494 C-254.4764588 202.65698752 -253.10598252 198.3628759 -251.73269653 194.06958008 C-251.08628289 192.03890559 -250.44534402 190.00647906 -249.81027222 187.972229 C-248.9365179 185.17520434 -248.04396374 182.3848503 -247.14685059 179.59524536 C-246.8954129 178.77380035 -246.64397522 177.95235535 -246.38491821 177.10601807 C-241.91649474 163.44226922 -224.74375339 154.88906987 -213.38903809 146.93118286 C-201.71738589 138.74383572 -190.23277487 130.29608572 -178.76672363 121.82449341 C-173.05490543 117.60962231 -167.29981635 113.46159204 -161.51403809 109.34915161 C-155.06456423 104.76237449 -148.66274541 100.10894308 -142.24987793 95.47122192 C-139.98801104 93.83709362 -137.72405626 92.20590531 -135.45935059 90.57571411 C-127.66997838 84.96579596 -119.91004963 79.3195554 -112.18981934 73.61477661 C-105.6725906 68.79940733 -99.11868619 64.04363188 -92.51403809 59.34915161 C-86.06456423 54.76237449 -79.66274541 50.10894308 -73.24987793 45.47122192 C-70.98801104 43.83709362 -68.72405626 42.20590531 -66.45935059 40.57571411 C-57.86207542 34.38394297 -49.30822128 28.13764165 -40.78845215 21.83963013 C-34.94173458 17.52376233 -29.04841993 13.28009123 -23.11560059 9.08352661 C-20.1181963 7.02658789 -20.1181963 7.02658789 -18.29944372 5.29520333 C-12.47231514 0.19654767 -7.54307115 -0.06360353 0 0 Z " fill="#38B6FE" transform="translate(405.9398193359375,96.19772338867188)"/>
<path d="M0 0 C157.84810127 0 157.84810127 0 186 28 C186.55171875 28.51691406 187.1034375 29.03382813 187.671875 29.56640625 C201.38368737 43.68367544 204.16715491 64.51628817 204.25 83.1875 C204.2809375 84.90163086 204.2809375 84.90163086 204.3125 86.65039062 C204.40483635 107.06826666 197.15046821 126.59511995 182.8828125 141.26171875 C177.45958819 146.41304699 171.39663051 150.19140551 165 154 C166.00417969 154.30292969 167.00835937 154.60585938 168.04296875 154.91796875 C187.71628563 160.91044365 203.32839019 168.14556639 218 183 C218.47566406 182.03513672 218.47566406 182.03513672 218.9609375 181.05078125 C232.29911702 155.22187561 256.47231018 135.28372148 284 126 C299.26577218 121.3855656 313.92968829 118.61782725 329.9375 118.6875 C330.95171524 118.69073273 330.95171524 118.69073273 331.98641968 118.69403076 C364.25252246 118.85823485 395.65494663 127.32991056 419.7265625 149.8828125 C421.63895956 151.66377333 423.58743709 153.30560572 425.625 154.9375 C442.77975156 169.68737985 453.09423361 193.77470171 455 216 C456.98617633 247.77343866 449.13859604 274.83200319 427.890625 298.92578125 C423.69666129 303.50499129 418.95589716 307.27952706 414 311 C412.74316406 312.01320313 412.74316406 312.01320313 411.4609375 313.046875 C403.63527587 319.14663542 395.0500019 323.08748325 386 327 C385.08863281 327.4125 384.17726563 327.825 383.23828125 328.25 C373.70064915 332.18177749 363.1259408 333.3516626 353 335 C351.90171875 335.19851563 350.8034375 335.39703125 349.671875 335.6015625 C313.09491688 339.57055157 275.19329894 331.61588705 246.1875 308.5 C237.1384213 300.82881908 229.87887313 292.61090784 223 283 C222.59910156 283.60585938 222.19820312 284.21171875 221.78515625 284.8359375 C206.79023465 306.93729587 188.24527094 318.69215841 163 326 C109.45404576 335.31233987 54.34969079 330 0 330 C0 221.1 0 112.2 0 0 Z " fill="#5D17EB" transform="translate(222,319)"/>
<path d="M0 0 C76.56 0 153.12 0 232 0 C232 21.78 232 43.56 232 66 C205.93 66 179.86 66 153 66 C153 153.12 153 240.24 153 330 C128.25 330 103.5 330 78 330 C78 242.88 78 155.76 78 66 C52.26 66 26.52 66 0 66 C0 44.22 0 22.44 0 0 Z " fill="#5D17EB" transform="translate(647,319)"/>
<path d="M0 0 C211.53 0 423.06 0 641 0 C641 13.2 641 26.4 641 40 C429.47 40 217.94 40 0 40 C0 26.8 0 13.6 0 0 Z " fill="#5D17EB" transform="translate(198,669)"/>
<path d="M0 0 C10.16644446 8.25480533 16.07787221 19.43348241 17.66015625 32.35546875 C18.87360087 46.93413915 15.43047695 60.66867457 6.03515625 72.04296875 C-2.25386737 80.84616113 -12.63353752 86.24402695 -24.77734375 86.75390625 C-26.63151032 86.76174076 -28.48580791 86.75383895 -30.33984375 86.73046875 C-31.26023437 86.74207031 -32.180625 86.75367188 -33.12890625 86.765625 C-45.74808497 86.71230453 -56.33990649 82.2496596 -65.58984375 73.66796875 C-75.31582623 63.33288434 -78.87132599 50.64456546 -78.75952148 36.76855469 C-78.29136202 23.23859576 -72.88124842 11.29467193 -63.02734375 1.98046875 C-44.73541116 -13.15448055 -19.30625662 -13.56917202 0 0 Z " fill="#38B4FE" transform="translate(584.33984375,507.64453125)"/>
<path d="M0 0 C52.93617021 0 52.93617021 0 68.375 11.25 C77.91256742 21.2417373 79.51895716 31.97963287 79.31640625 45.375 C78.86804646 50.511764 77.4782491 54.51125079 75 59 C74.67257812 59.63292969 74.34515625 60.26585937 74.0078125 60.91796875 C68.98352282 69.22454986 59.07200236 73.7017594 50 76 C36 78 36 78 0 78 C0 52.26 0 26.52 0 0 Z " fill="#38B4FE" transform="translate(297,513)"/>
<path d="M0 0 C34.04188312 0 34.04188312 0 48.27734375 11.25390625 C55.43135814 18.50525417 56.34768007 26.88229356 56.38500977 36.52246094 C56.22524732 45.65914587 53.95770603 53.15454571 47.6875 60 C34.52707912 71.68554612 16.54135441 71 0 71 C0 47.57 0 24.14 0 0 Z " fill="#38B3FE" transform="translate(297,377)"/>
</svg>
