<svg xmlns="http://www.w3.org/2000/svg" version="1.1" viewBox="199 461 717.78 117.85">
<path d="M0 0 C59.92582418 0 59.92582418 0 69 9 C74.87080024 16.97136179 74.54070094 25.50769467 74 35 C72.87933576 41.11616755 69.41165682 45.76038551 65 50 C64.01 50.495 64.01 50.495 63 51 C63.66386719 51.23074219 64.32773437 51.46148438 65.01171875 51.69921875 C74.68415279 55.27166519 79.4592085 60.91841701 84 70 C84.14695312 69.3709375 84.29390625 68.741875 84.4453125 68.09375 C87.03911456 58.19556285 92.52661922 50.80426584 101 45 C114.79177892 37.977081 131.39065302 36.54076729 146.32421875 40.9609375 C157.40720141 45.26469427 164.97320557 51.98339581 170.0546875 62.66796875 C173.70451922 71.67189246 173.16953175 82.50417836 169.45703125 91.3984375 C163.67110352 101.72934332 155.07206687 108.13086616 143.88745117 111.3737793 C138.65349305 112.50890254 133.46036457 112.47182106 128.125 112.4375 C127.03058594 112.45748047 125.93617188 112.47746094 124.80859375 112.49804688 C112.16509858 112.49056552 102.153682 108.948032 93.09765625 100.15234375 C88.79117715 95.57272644 86.18845555 90.87212919 84 85 C83.82984375 85.58007812 83.6596875 86.16015625 83.484375 86.7578125 C81.1031644 94.43341689 77.90829754 100.47544469 71 105 C64.71440625 108.25757728 59.33318303 110.12898518 52.22167969 110.11352539 C50.45606689 110.11334412 50.45606689 110.11334412 48.65478516 110.11315918 C47.4229248 110.10804321 46.19106445 110.10292725 44.921875 110.09765625 C43.21765381 110.09614563 43.21765381 110.09614563 41.47900391 110.09460449 C37.23599233 110.08937354 32.99299515 110.07541227 28.75 110.0625 C19.2625 110.041875 9.775 110.02125 0 110 C0 73.7 0 37.4 0 0 Z M31 20 C31 27.26 31 34.52 31 42 C38.44352374 41.75570169 38.44352374 41.75570169 41.4375 39.125 C44.30758483 35.22168463 44.40733937 31.72513672 44 27 C41.63279915 23.05466526 39.43319302 21.21912808 35 20 C33.68 20 32.36 20 31 20 Z M115.5625 69.4375 C114.18319061 75.72102056 114.91084998 80.35431204 118 86 C121.12054524 88.89221266 123.4900789 90.82841806 127.75 91.3125 C132.63685522 90.84261007 135.61416287 88.57698707 138.8125 84.9375 C141.32973941 80.83042517 141.48086689 76.68399971 141 72 C139.19253529 66.87885 136.56696735 63.92975264 132 61 C124.23970877 59.64502852 119.52414337 62.71993081 115.5625 69.4375 Z M31 65 C31 73.25 31 81.5 31 90 C40.89120307 90.24638318 40.89120307 90.24638318 49 86 C51.25356367 83.14990477 52.08539603 81.4029347 51.86328125 77.75390625 C51.2240895 74.18264227 50.38634072 71.5580477 48.3125 68.5625 C42.67612527 64.7541387 37.78653356 65 31 65 Z " fill="#5300FF" transform="translate(689,466)"/>
<path d="M0 0 C8.25 0 16.5 0 25 0 C30.62515209 12.3753346 30.62515209 12.3753346 32.85571289 17.9230957 C33.10051392 18.53000244 33.34531494 19.13690918 33.59753418 19.76220703 C34.39157983 21.73246658 35.18216121 23.7040948 35.97265625 25.67578125 C36.5419034 27.09043011 37.11136133 28.50499417 37.68101501 29.91947937 C39.17621585 33.63387604 40.66843346 37.34946405 42.16003418 41.06530762 C43.6353673 44.73897289 45.11374728 48.41141142 46.59179688 52.08398438 C49.20432155 58.57654793 51.81172785 65.07115151 54.41671181 71.56674385 C56.16215472 75.91736671 57.91323111 80.26567371 59.66864491 84.61228275 C60.80271113 87.42158685 61.9341095 90.23196069 63.06503105 93.04253197 C63.59865915 94.36685734 64.13348963 95.69069891 64.66957283 97.01403236 C65.40450982 98.82864653 66.1348752 100.64511026 66.86499023 102.46166992 C67.48602882 104.00004768 67.48602882 104.00004768 68.11961365 105.56950378 C69 108 69 108 69 110 C59.76 110 50.52 110 41 110 C38.36 103.07 35.72 96.14 33 89 C12.705 88.505 12.705 88.505 -8 88 C-8.33 89.65 -8.66 91.3 -9 93 C-9.44070447 94.41184154 -9.91068699 95.81489354 -10.41015625 97.20703125 C-10.6512915 97.88483643 -10.89242676 98.5626416 -11.14086914 99.26098633 C-11.44500732 100.10298584 -11.74914551 100.94498535 -12.0625 101.8125 C-13.031875 104.514375 -14.00125 107.21625 -15 110 C-24.57 110 -34.14 110 -44 110 C-36.81812977 90.9680439 -29.19931771 72.13874864 -21.48974609 53.31567383 C-20.62331274 51.20005698 -19.75693844 49.08441595 -18.890625 46.96875 C-18.46838654 45.93759567 -18.04614807 44.90644135 -17.6111145 43.84403992 C-12.67271669 31.7726219 -7.82610593 19.66510198 -3.01123047 7.54394531 C-2.01107718 5.02786678 -1.00556779 2.51391948 0 0 Z M12 36 C10.4313281 40.11093684 8.86480262 44.22268296 7.30029297 48.33520508 C6.76735956 49.7351714 6.23383215 51.13491174 5.69970703 52.53442383 C4.93367065 54.54189394 4.16974898 56.55015746 3.40625 58.55859375 C2.71499023 60.37315063 2.71499023 60.37315063 2.00976562 62.22436523 C0.9430207 64.6643569 0.9430207 64.6643569 1 66 C8.59 66 16.18 66 24 66 C22.79313844 59.96569222 20.71863299 54.49968797 18.5625 48.75 C18.15451172 47.63625 17.74652344 46.5225 17.32617188 45.375 C16.93107422 44.31796875 16.53597656 43.2609375 16.12890625 42.171875 C15.76869385 41.2034668 15.40848145 40.23505859 15.03735352 39.23730469 C14.21085858 36.84570925 14.21085858 36.84570925 12 36 Z " fill="#4D00E9" transform="translate(243,466)"/>
<path d="M0 0 C8.2912721 0.03668704 15.16390149 2.25899355 22 7 C28.82666747 14.48731271 29.38490454 21.46892873 29.2109375 31.296875 C28.76369193 39.14851941 25.63293646 44.58673237 20 50 C19.01 50.495 19.01 50.495 18 51 C18.66386719 51.23074219 19.32773437 51.46148438 20.01171875 51.69921875 C29.68415279 55.27166519 34.4592085 60.91841701 39 70 C39.14695312 69.3709375 39.29390625 68.741875 39.4453125 68.09375 C42.03911456 58.19556285 47.52661922 50.80426584 56 45 C69.79177892 37.977081 86.39065302 36.54076729 101.32421875 40.9609375 C112.40720141 45.26469427 119.97320557 51.98339581 125.0546875 62.66796875 C128.70451922 71.67189246 128.16953175 82.50417836 124.45703125 91.3984375 C118.67110352 101.72934332 110.07206687 108.13086616 98.88745117 111.3737793 C93.65349305 112.50890254 88.46036457 112.47182106 83.125 112.4375 C82.03058594 112.45748047 80.93617188 112.47746094 79.80859375 112.49804688 C67.16509858 112.49056552 57.153682 108.948032 48.09765625 100.15234375 C43.79117715 95.57272644 41.18845555 90.87212919 39 85 C38.82984375 85.58007812 38.6596875 86.16015625 38.484375 86.7578125 C35.81684411 95.35634292 31.91758154 101.61527966 23.96484375 106.1640625 C18.39033387 108.89724371 13.17099227 109.74233853 7 110 C7 109.67 7 109.34 7 109 C7.70125 108.84144531 8.4025 108.68289063 9.125 108.51953125 C20.56769131 105.70549983 27.61975392 101.00839373 33.875 91 C36.62460754 83.72259561 36.26511082 73.97779072 33.25 66.875 C32.53996419 65.56094067 31.79384606 64.26519216 31 63 C30.4225 62.071875 29.845 61.14375 29.25 60.1875 C24.75212209 55.81456315 18.9378145 53.78134435 13 52 C13.7425 51.278125 14.485 50.55625 15.25 49.8125 C22.18006574 42.72493277 25.14942421 37.55864797 25.4375 27.625 C25.25316172 19.51411549 23.93204368 14.14147537 18.375 8.1875 C13.02541313 4.25357988 6.47186672 2.15363043 0 1 C0 0.67 0 0.34 0 0 Z M70.5625 69.4375 C69.18319061 75.72102056 69.91084998 80.35431204 73 86 C76.12054524 88.89221266 78.4900789 90.82841806 82.75 91.3125 C87.63685522 90.84261007 90.61416287 88.57698707 93.8125 84.9375 C96.32973941 80.83042517 96.48086689 76.68399971 96 72 C94.19253529 66.87885 91.56696735 63.92975264 87 61 C79.23970877 59.64502852 74.52414337 62.71993081 70.5625 69.4375 Z " fill="#5401FF" transform="translate(734,466)"/>
<path d="M0 0 C7.92 0 15.84 0 24 0 C24.33 16.83 24.66 33.66 25 51 C28.3 49.02 31.6 47.04 35 45 C45.12590675 42.46852331 55.45107948 44.08725351 64.46484375 49.47265625 C70.40048578 54.14821785 73.43173094 60.34368117 74.34411621 67.81964111 C74.45919128 70.85955159 74.45088046 73.87263125 74.390625 76.9140625 C74.38496521 78.00971527 74.37930542 79.10536804 74.37347412 80.23422241 C74.35126804 83.69827896 74.30110039 87.16126154 74.25 90.625 C74.22991467 92.9882662 74.21166748 95.35154879 74.1953125 97.71484375 C74.15487422 103.47729873 74.07655032 109.237462 74 115 C65.75 115 57.5 115 49 115 C48.97421875 111.96554687 48.9484375 108.93109375 48.921875 105.8046875 C48.8834282 102.85570116 48.8382764 99.9068881 48.79248047 96.95800781 C48.76430934 94.91349605 48.74307565 92.86887616 48.72900391 90.82421875 C48.70752113 87.87964678 48.6608431 84.93636959 48.609375 81.9921875 C48.60814636 81.0825827 48.60691772 80.17297791 48.60565186 79.23580933 C48.47546997 73.55521185 47.72954198 70.35694972 44 66 C39.82164842 63.91082421 34.47055502 64.62453914 30.0625 65.75 C26.69841821 67.78883745 26.20448464 70.38654608 25 74 C24.88734453 75.36515314 24.82417414 76.73477212 24.79467773 78.10424805 C24.77473251 78.92487228 24.75478729 79.74549652 24.73423767 80.59098816 C24.70916893 81.9129998 24.70916893 81.9129998 24.68359375 83.26171875 C24.66281265 84.16751175 24.64203156 85.07330475 24.62062073 86.00654602 C24.55523442 88.90012016 24.49629096 91.79378507 24.4375 94.6875 C24.3943044 96.64909793 24.35068977 98.61068668 24.30664062 100.57226562 C24.19877557 105.38141874 24.09962093 110.19064073 24 115 C16.08 115 8.16 115 0 115 C0 77.05 0 39.1 0 0 Z " fill="#4E00E9" transform="translate(449,461)"/>
<path d="M0 0 C7.85501684 6.01419427 11.55647072 13.33678164 13.625 22.875 C13.625 26.835 13.625 30.795 13.625 34.875 C-2.545 35.205 -18.715 35.535 -35.375 35.875 C-32.5219368 43.18009152 -32.5219368 43.18009152 -26.6953125 46.28515625 C-21.36781656 47.63945236 -16.28389461 46.84975469 -11.4375 44.375 C-10.756875 43.88 -10.07625 43.385 -9.375 42.875 C-8.385 42.545 -7.395 42.215 -6.375 41.875 C-6.375 41.215 -6.375 40.555 -6.375 39.875 C-1.74824343 41.2672459 2.27186231 43.17020984 6.5 45.5 C7.65242187 46.13164063 8.80484375 46.76328125 9.9921875 47.4140625 C10.86101562 47.89617188 11.72984375 48.37828125 12.625 48.875 C7.71143631 57.34666153 0.46250925 63.81272759 -9.109375 66.3671875 C-20.13370432 68.08149708 -33.55600545 68.85317671 -43.375 62.875 C-52.2850223 56.35228968 -58.8053341 48.71829872 -61.375 37.875 C-62.62282538 25.96155132 -60.74279487 15.9709739 -53.1875 6.5 C-39.44986552 -7.80260214 -16.76974935 -10.82000295 0 0 Z M-32.75 13.6875 C-34.7927076 16.11184935 -34.7927076 16.11184935 -35.375 20.875 C-27.125 20.875 -18.875 20.875 -10.375 20.875 C-12.41848815 14.46341074 -12.41848815 14.46341074 -17.375 10.875 C-23.06687887 9.14268904 -28.00243914 10.06436145 -32.75 13.6875 Z " fill="#4D00E9" transform="translate(593.375,511.125)"/>
<path d="M0 0 C2.74074157 1.84678875 4.84912194 3.83829851 7 6.34765625 C7.43054688 6.82589844 7.86109375 7.30414062 8.3046875 7.796875 C14.88636886 15.83898861 15 25.33774215 15 35.34765625 C-1.5 35.34765625 -18 35.34765625 -35 35.34765625 C-31.60911927 43.04290076 -31.60911927 43.04290076 -25.28125 46.7890625 C-19.5852689 48.1837976 -14.65297397 47.29658575 -9.625 44.41015625 C-8.325625 43.38921875 -8.325625 43.38921875 -7 42.34765625 C-5.09277344 41.10791016 -5.09277344 41.10791016 -3 40.34765625 C-0.98535156 40.94677734 -0.98535156 40.94677734 1.109375 42.12109375 C1.86347656 42.53359375 2.61757813 42.94609375 3.39453125 43.37109375 C4.17183594 43.81710937 4.94914062 44.263125 5.75 44.72265625 C6.54277344 45.1609375 7.33554687 45.59921875 8.15234375 46.05078125 C10.10997208 47.13573189 12.05811781 48.23484249 14 49.34765625 C8.30190136 58.27845103 1.41451988 63.93778052 -8.84472656 66.87597656 C-20.24619715 69.37117833 -34.07284983 68.60573172 -44 62.34765625 C-52.11665232 56.88105623 -57.47509256 48.7816286 -60 39.34765625 C-61.02507294 30.34915963 -61.09521824 21.10953077 -56 13.34765625 C-55.57589844 12.66574219 -55.15179688 11.98382812 -54.71484375 11.28125 C-42.47154532 -6.69150285 -18.41673466 -10.9669097 0 0 Z M-31 13.34765625 C-33.43156554 16.29500842 -34 17.53584848 -34 21.34765625 C-25.75 21.34765625 -17.5 21.34765625 -9 21.34765625 C-11.31732569 14.80647364 -11.31732569 14.80647364 -16 11.34765625 C-21.39997896 9.58952356 -26.06271815 10.81124871 -31 13.34765625 Z " fill="#4D00E9" transform="translate(371,510.65234375)"/>
<path d="M0 0 C9.9 0 19.8 0 30 0 C30 8.25 30 16.5 30 25 C34.62 25 39.24 25 44 25 C44 31.27 44 37.54 44 44 C39.38 44 34.76 44 30 44 C30.11358571 48.27142048 30.24034641 52.54173682 30.375 56.8125 C30.4059375 58.02744141 30.436875 59.24238281 30.46875 60.49414062 C30.52675781 62.23920898 30.52675781 62.23920898 30.5859375 64.01953125 C30.6173584 65.09307861 30.6487793 66.16662598 30.68115234 67.27270508 C30.81592307 70.2160765 30.81592307 70.2160765 33 73 C34.11375 72.79375 35.2275 72.5875 36.375 72.375 C37.57125 72.25125 38.7675 72.1275 40 72 C42.8241472 74.8241472 43.53673561 78.20981022 44.6875 81.9375 C44.92533203 82.66646484 45.16316406 83.39542969 45.40820312 84.14648438 C47.12270503 89.6318849 47.12270503 89.6318849 46 93 C39.65756006 96.11983446 33.990859 96.48988382 27 96.4375 C26.05382812 96.45748047 25.10765625 96.47746094 24.1328125 96.49804688 C16.68901746 96.49289189 11.03912252 95.03912252 5.6875 89.6875 C1.15376938 82.4671142 -0.13218882 76.12188347 -0.09765625 67.73046875 C-0.0962413 67.04946609 -0.09482635 66.36846344 -0.09336853 65.66682434 C-0.08780298 63.50700353 -0.07525703 61.34728911 -0.0625 59.1875 C-0.05748054 57.71679838 -0.05291841 56.24609512 -0.04882812 54.77539062 C-0.03784488 51.1835596 -0.02060422 47.5917902 0 44 C-3.3 44 -6.6 44 -10 44 C-10 37.73 -10 31.46 -10 25 C-6.7 25 -3.4 25 0 25 C0 16.75 0 8.5 0 0 Z " fill="#5202FF" transform="translate(870,482)"/>
<path d="M0 0 C8.25 0 16.5 0 25 0 C25 8.25 25 16.5 25 25 C29.62 25 34.24 25 39 25 C39 31.27 39 37.54 39 44 C34.38 44 29.76 44 25 44 C25.14026303 48.45857367 25.28694494 52.91677242 25.4375 57.375 C25.47681641 58.64601563 25.51613281 59.91703125 25.55664062 61.2265625 C25.59853516 62.43828125 25.64042969 63.65 25.68359375 64.8984375 C25.73858032 66.57945557 25.73858032 66.57945557 25.79467773 68.29443359 C25.82596013 70.96712771 25.82596013 70.96712771 27 73 C30.34252724 73.07427838 32.8035914 73.06546953 36 72 C38.97 81.9 38.97 81.9 42 92 C31.45887953 96.68494243 31.45887953 96.68494243 24.4375 96.5 C23.32616699 96.48187256 23.32616699 96.48187256 22.19238281 96.46337891 C14.57915447 96.18607589 10.57838269 94.4637879 5.1875 89.3125 C-0.92665942 80.05391574 -0.36806748 70.56372567 -0.1875 59.9375 C-0.17242519 58.38868489 -0.15874173 56.83985559 -0.14648438 55.29101562 C-0.11370138 51.52698822 -0.06207498 47.76365362 0 44 C-3.3 44 -6.6 44 -10 44 C-10 37.73 -10 31.46 -10 25 C-6.7 25 -3.4 25 0 25 C0 16.75 0 8.5 0 0 Z " fill="#4D00E9" transform="translate(400,482)"/>
<path d="M0 0 C-1.48008696 5.00113594 -3.6318336 9.32915597 -6.125 13.875 C-6.49753906 14.56335938 -6.87007812 15.25171875 -7.25390625 15.9609375 C-8.16499526 17.64294798 -9.08190315 19.32180436 -10 21 C-11.55847656 20.51660156 -11.55847656 20.51660156 -13.1484375 20.0234375 C-19.26331772 18.39859103 -25.41790406 17.52451661 -31.0625 20.75 C-33.92835838 24.07809361 -35.2352508 26.72320873 -35.31884766 31.12597656 C-35.33871735 31.92650452 -35.35858704 32.72703247 -35.37905884 33.55181885 C-35.39638565 34.83327789 -35.39638565 34.83327789 -35.4140625 36.140625 C-35.43342865 37.02280701 -35.4527948 37.90498901 -35.4727478 38.81390381 C-35.53242848 41.62583816 -35.57888283 44.4378137 -35.625 47.25 C-35.66319038 49.15887181 -35.70224273 51.06772659 -35.7421875 52.9765625 C-35.83973998 57.65095198 -35.91939939 62.32516451 -36 67 C-44.25 67 -52.5 67 -61 67 C-61 44.23 -61 21.46 -61 -2 C-52.75 -2 -44.5 -2 -36 -2 C-35.67 0.31 -35.34 2.62 -35 5 C-34.5875 4.60167969 -34.175 4.20335937 -33.75 3.79296875 C-22.99335607 -6.07529164 -12.97444427 -5.43229068 0 0 Z " fill="#4D00E9" transform="translate(678,509)"/>
<path d="M0 0 C8.2912721 0.03668704 15.16390149 2.25899355 22 7 C28.82666747 14.48731271 29.38490454 21.46892873 29.2109375 31.296875 C28.76369193 39.14851941 25.63293646 44.58673237 20 50 C19.01 50.495 19.01 50.495 18 51 C18.66386719 51.23074219 19.32773437 51.46148438 20.01171875 51.69921875 C28.73353178 54.92055991 33.8774937 59.62814106 38 68 C40.68414209 78.26684349 39.29577001 88.09034343 34.1875 97.25 C28.99383424 103.77917981 22.50555729 108.07856782 14.19921875 109.46875 C11.79721972 109.71336659 9.41195515 109.89929206 7 110 C7 109.67 7 109.34 7 109 C7.70125 108.84144531 8.4025 108.68289063 9.125 108.51953125 C20.56769131 105.70549983 27.61975392 101.00839373 33.875 91 C36.62460754 83.72259561 36.26511082 73.97779072 33.25 66.875 C32.53996419 65.56094067 31.79384606 64.26519216 31 63 C30.4225 62.071875 29.845 61.14375 29.25 60.1875 C24.75212209 55.81456315 18.9378145 53.78134435 13 52 C13.7425 51.278125 14.485 50.55625 15.25 49.8125 C22.18006574 42.72493277 25.14942421 37.55864797 25.4375 27.625 C25.25316172 19.51411549 23.93204368 14.14147537 18.375 8.1875 C13.02541313 4.25357988 6.47186672 2.15363043 0 1 C0 0.67 0 0.34 0 0 Z " fill="#F600FF" transform="translate(734,466)"/>
<path d="M0 0 C0.99 0 1.98 0 3 0 C3 36.3 3 72.6 3 110 C2.01 110 1.02 110 0 110 C0 73.7 0 37.4 0 0 Z " fill="#00FFFF" transform="translate(689,466)"/>
<path d="M0 0 C9.82089695 0.32736323 18.21487541 4.03159637 25.4375 10.75 C33.22935629 19.19117765 35.40464687 28.15235598 35.265625 39.33203125 C34.49978789 49.9073407 29.69673894 56.94146495 22 64 C15.29025047 69.43294282 6.69273056 72.6862682 -2 72 C-2 71.67 -2 71.34 -2 71 C-1.29875 70.82984375 -0.5975 70.6596875 0.125 70.484375 C10.27755803 67.89105855 20.02986135 64.50959671 25.734375 55.15625 C30.78285037 45.44394501 32.48934302 36.08237208 29.80859375 25.359375 C26.87098081 16.78778941 21.73505833 10.641035 14 6 C11.45141599 4.8061699 8.91246237 3.76755907 6.26171875 2.82421875 C4.07503812 2.0273455 2.05957595 1.07927435 0 0 Z " fill="#F200FF" transform="translate(826,506)"/>
<path d="M0 0 C-2.83662344 1.48646858 -5.67330827 2.61481663 -8.6875 3.6875 C-18.3901429 7.58856261 -24.58844553 13.51889648 -29 23 C-32.58902465 32.32799644 -31.4834956 41.83430056 -28 51 C-23.72884165 59.85243381 -16.48401384 65.46509224 -7.375 68.9375 C-6.26125 69.288125 -5.1475 69.63875 -4 70 C-8.40556248 71.50875427 -11.12150583 70.26903739 -15.26953125 68.4921875 C-24.33971526 63.53537735 -30.9228715 55.93465285 -34.3125 46.25 C-36.27235276 36.63918357 -35.74883371 26.43491395 -30.74609375 17.84765625 C-23.58362587 7.67968413 -12.96679558 -0.63487278 0 0 Z " fill="#00EDFF" transform="translate(808,506)"/>
<path d="M0 0 C0.99 0 1.98 0 3 0 C3.0093457 0.84071045 3.01869141 1.6814209 3.02832031 2.54760742 C3.07291519 5.73329919 3.13478006 8.91810733 3.20751953 12.10327148 C3.23536302 13.46936254 3.25675517 14.83560374 3.27099609 16.2019043 C3.38427135 31.5500401 3.38427135 31.5500401 9.7409668 45.12133789 C12.78129337 47.92802877 16.0183363 49.79343524 20 51 C17.68004218 51.7974855 16.38017091 52.11434828 14 51.3984375 C6.85725587 47.7433614 3.84103414 43.57609103 1 36 C-0.0495771 31.87332444 -0.11514424 27.98005057 -0.09765625 23.73046875 C-0.0962413 23.04946609 -0.09482635 22.36846344 -0.09336853 21.66682434 C-0.08780298 19.50700353 -0.07525703 17.34728911 -0.0625 15.1875 C-0.05748054 13.71679838 -0.05291841 12.24609512 -0.04882812 10.77539062 C-0.03784488 7.1835596 -0.02060422 3.5917902 0 0 Z " fill="#00F6FF" transform="translate(870,526)"/>
<path d="M0 0 C3.97516753 -0.48477653 6.40570562 -0.06053541 9.6875 2.125 C13.5386641 5.17525829 15.63998382 8.18071839 16.27734375 13.171875 C16.48747216 18.18133621 15.88717656 21.76547438 13 26 C8.85020267 30.24411091 5.92228163 31.6446631 0 32 C1.96238669 30.6917422 3.96278154 29.43837744 6 28.25 C9.81857128 25.38607154 11.59187012 22.83423529 12.28125 18.046875 C12.49754647 13.32440202 11.64793349 10.01755427 9 6 C6.21270394 3.42711133 3.46330431 1.53924636 0 0 Z " fill="#00EAFF" transform="translate(817,526)"/>
<path d="M0 0 C-0.804375 0.3403125 -0.804375 0.3403125 -1.625 0.6875 C-5.622984 2.89691221 -9.06229847 5.38033373 -11.375 9.375 C-12.86382594 15.62806893 -12.16830472 20.40266166 -9 26 C-7.07926227 27.66170694 -5.23972469 28.75570851 -3 30 C-4.7734375 30.66796875 -4.7734375 30.66796875 -7 31 C-8.8515625 29.92578125 -8.8515625 29.92578125 -10.625 28.3125 C-11.21539063 27.79300781 -11.80578125 27.27351562 -12.4140625 26.73828125 C-16.11292875 22.68410519 -16.49306179 18.93680925 -16.3828125 13.60546875 C-15.58777191 8.19432511 -12.71455037 4.40681056 -8.5625 1 C-5.55425426 -0.17394956 -3.20212945 -0.22340438 0 0 Z " fill="#F300FF" transform="translate(817,526)"/>
<path d="M0 0 C5.76417073 0.25116212 9.89802749 0.5251209 14 5 C16.42345493 8.85549648 16.23522713 12.47004232 15.59375 16.84375 C14.6068618 20.4277124 13.0353773 21.93336014 10 24 C7.26507468 24.67360198 4.83789264 24.85570037 2 25 C5 23 5 23 7.5625 21.6875 C10.59470974 19.58827787 11.29134138 18.62203293 12 15 C11.60337122 11.11577337 11.12385169 7.41293493 8.6484375 4.30078125 C6.06904742 2.26538576 3.1475557 1.77204197 0 1 C0 0.67 0 0.34 0 0 Z " fill="#00E6FF" transform="translate(728,531)"/>
<path d="M0 0 C0.99 0 1.98 0 3 0 C3.03758423 1.15000488 3.03758423 1.15000488 3.07592773 2.32324219 C3.19201423 5.79899283 3.31468366 9.27448092 3.4375 12.75 C3.47681641 13.9565625 3.51613281 15.163125 3.55664062 16.40625 C3.59853516 17.56640625 3.64042969 18.7265625 3.68359375 19.921875 C3.72025146 20.99018555 3.75690918 22.05849609 3.79467773 23.15917969 C3.96986909 25.58311152 4.31198487 27.67886712 5 30 C3.0625 29.6875 3.0625 29.6875 1 29 C-0.07917226 25.76248322 -0.11425601 23.42248229 -0.09765625 20.01953125 C-0.09443359 18.85615234 -0.09121094 17.69277344 -0.08789062 16.49414062 C-0.07951172 15.27919922 -0.07113281 14.06425781 -0.0625 12.8125 C-0.05798828 11.58595703 -0.05347656 10.35941406 -0.04882812 9.09570312 C-0.03703065 6.06375332 -0.02056921 3.03190094 0 0 Z " fill="#FE00FF" transform="translate(897,526)"/>
<path d="M0 0 C9.70101121 0.61291792 9.70101121 0.61291792 14 4 C16.7024425 8.05366375 16.52736817 11.24531551 16 16 C14.60911202 19.5544915 13.43618806 20.71251242 10.25 22.8125 C6.62789655 24.13596088 3.82678568 24.22960714 0 24 C0 23.67 0 23.34 0 23 C0.61488281 22.84144531 1.22976563 22.68289063 1.86328125 22.51953125 C7.00629366 21.06760821 7.00629366 21.06760821 11.0625 17.75 C12.27697833 14.18753023 12.53442841 11.74099887 12 8 C8.60092623 3.3648994 5.3885825 2.16224328 0 1 C0 0.67 0 0.34 0 0 Z " fill="#00DEFF" transform="translate(720,485)"/>
<path d="M0 0 C0.99 0 1.98 0 3 0 C3 8.58 3 17.16 3 26 C2.01 25.67 1.02 25.34 0 25 C0 16.75 0 8.5 0 0 Z " fill="#00FCFF" transform="translate(870,482)"/>
<path d="M0 0 C0.99 0 1.98 0 3 0 C3 8.25 3 16.5 3 25 C2.01 25 1.02 25 0 25 C0 16.75 0 8.5 0 0 Z " fill="#F100FF" transform="translate(717,531)"/>
<path d="M0 0 C0.99 0 1.98 0 3 0 C3 8.25 3 16.5 3 25 C2.01 25 1.02 25 0 25 C0 16.75 0 8.5 0 0 Z " fill="#FF00FF" transform="translate(897,482)"/>
<path d="M0 0 C2.8241472 2.8241472 3.53673561 6.20981022 4.6875 9.9375 C4.92533203 10.66646484 5.16316406 11.39542969 5.40820312 12.14648438 C7.12270503 17.6318849 7.12270503 17.6318849 6 21 C3.66883683 22.60769874 2.57183574 23.09530596 -0.25 22.625 C-1.11625 22.315625 -1.11625 22.315625 -2 22 C-0.02 21.34 1.96 20.68 4 20 C3.62746094 18.97519531 3.25492188 17.95039062 2.87109375 16.89453125 C2.39258981 15.53407887 1.91476062 14.17338904 1.4375 12.8125 C1.19064453 12.13896484 0.94378906 11.46542969 0.68945312 10.77148438 C-0.68624467 6.7993992 -1.31172566 4.04514201 0 0 Z " fill="#FA00FF" transform="translate(910,554)"/>
<path d="M0 0 C0.99 0 1.98 0 3 0 C3 7.59 3 15.18 3 23 C2.01 23 1.02 23 0 23 C0 15.41 0 7.82 0 0 Z " fill="#F000FF" transform="translate(717,486)"/>
<path d="M0 0 C1.65 0 3.3 0 5 0 C5 6.27 5 12.54 5 19 C4.01 19 3.02 19 2 19 C2 13.06 2 7.12 2 1 C1.34 0.67 0.68 0.34 0 0 Z " fill="#F100FF" transform="translate(909,507)"/>
<path d="M0 0 C0.99 0 1.98 0 3 0 C3 6.27 3 12.54 3 19 C2.01 19 1.02 19 0 19 C0 12.73 0 6.46 0 0 Z " fill="#00FFFF" transform="translate(860,507)"/>
<path d="M0 0 C-0.33 0.99 -0.66 1.98 -1 3 C-6.04473164 5.308606 -11.46271835 6.43715381 -17 6 C-17 5.67 -17 5.34 -17 5 C-15.87851562 4.70996094 -15.87851562 4.70996094 -14.734375 4.4140625 C-13.74953125 4.15367187 -12.7646875 3.89328125 -11.75 3.625 C-10.77546875 3.36976563 -9.8009375 3.11453125 -8.796875 2.8515625 C-5.77832354 1.93250633 -3.13855858 0 0 0 Z " fill="#E500FF" transform="translate(758,570)"/>
</svg>