<?xml version="1.0" encoding="UTF-8"?>
<svg xmlns="http://www.w3.org/2000/svg" xmlns:xlink="http://www.w3.org/1999/xlink" width="100px" height="100px" viewBox="0 0 100 100" version="1.1">
<g id="surface1">
<path style=" stroke:none;fill-rule:nonzero;fill:rgb(21.960784%,71.372551%,99.607843%);fill-opacity:1;" d="M 37.585938 8.90625 C 37.695312 8.90625 37.808594 8.90625 37.921875 8.902344 C 38.222656 8.902344 38.527344 8.898438 38.832031 8.902344 C 39.160156 8.902344 39.488281 8.898438 39.816406 8.894531 C 40.457031 8.890625 41.101562 8.890625 41.742188 8.890625 C 42.265625 8.886719 42.789062 8.886719 43.3125 8.886719 C 44.796875 8.878906 46.28125 8.878906 47.765625 8.878906 C 47.886719 8.878906 47.886719 8.878906 48.007812 8.878906 C 48.085938 8.878906 48.167969 8.878906 48.25 8.878906 C 49.546875 8.878906 50.839844 8.875 52.136719 8.867188 C 53.46875 8.859375 54.804688 8.855469 56.136719 8.855469 C 56.882812 8.855469 57.628906 8.851562 58.378906 8.847656 C 59.015625 8.84375 59.652344 8.839844 60.289062 8.84375 C 60.613281 8.847656 60.9375 8.847656 61.261719 8.839844 C 62.632812 8.824219 63.667969 8.832031 64.707031 9.808594 C 64.753906 9.855469 64.804688 9.90625 64.851562 9.953125 C 65.09375 10.179688 65.363281 10.359375 65.636719 10.550781 C 65.742188 10.625 65.847656 10.699219 65.957031 10.777344 C 66.039062 10.835938 66.039062 10.835938 66.121094 10.894531 C 66.667969 11.28125 67.207031 11.675781 67.75 12.066406 C 67.957031 12.21875 68.167969 12.371094 68.378906 12.519531 C 69.097656 13.039062 69.816406 13.5625 70.53125 14.089844 C 71.136719 14.539062 71.742188 14.976562 72.355469 15.414062 C 72.953125 15.835938 73.542969 16.269531 74.136719 16.699219 C 74.347656 16.847656 74.558594 17 74.765625 17.152344 C 75.488281 17.671875 76.207031 18.191406 76.921875 18.722656 C 77.523438 19.167969 78.132812 19.605469 78.742188 20.042969 C 79.339844 20.464844 79.933594 20.898438 80.527344 21.328125 C 80.734375 21.476562 80.945312 21.628906 81.15625 21.78125 C 83.152344 23.21875 83.152344 23.21875 83.96875 23.839844 C 84.164062 23.984375 84.164062 23.984375 84.363281 24.09375 C 85.050781 24.507812 85.1875 25.195312 85.40625 25.921875 C 85.449219 26.066406 85.496094 26.210938 85.542969 26.355469 C 85.644531 26.683594 85.746094 27.007812 85.847656 27.332031 C 86.03125 27.910156 86.21875 28.484375 86.410156 29.0625 C 86.441406 29.164062 86.476562 29.265625 86.511719 29.371094 C 86.582031 29.585938 86.652344 29.796875 86.722656 30.011719 C 87.324219 31.839844 87.914062 33.671875 88.496094 35.507812 C 89.035156 37.191406 89.585938 38.875 90.140625 40.554688 C 90.746094 42.398438 91.347656 44.246094 91.9375 46.09375 C 91.96875 46.1875 92 46.28125 92.027344 46.375 C 92.058594 46.464844 92.085938 46.554688 92.117188 46.648438 C 92.144531 46.734375 92.171875 46.824219 92.199219 46.914062 C 92.253906 47.085938 92.308594 47.253906 92.359375 47.425781 C 92.480469 47.820312 92.609375 48.195312 92.785156 48.570312 C 93.410156 49.953125 92.867188 51.15625 92.375 52.496094 C 92.253906 52.824219 92.140625 53.15625 92.027344 53.488281 C 91.863281 53.953125 91.699219 54.421875 91.535156 54.890625 C 91.183594 55.882812 90.859375 56.886719 90.542969 57.890625 C 90.398438 58.355469 90.25 58.820312 90.101562 59.285156 C 90.070312 59.378906 90.042969 59.472656 90.011719 59.566406 C 89.613281 60.808594 89.203125 62.046875 88.796875 63.285156 C 88.253906 64.933594 87.71875 66.578125 87.191406 68.226562 C 87.101562 68.507812 87.011719 68.792969 86.921875 69.074219 C 86.644531 69.933594 86.371094 70.792969 86.101562 71.652344 C 85.976562 72.050781 85.847656 72.449219 85.722656 72.84375 C 85.660156 73.035156 85.601562 73.222656 85.542969 73.410156 C 85.460938 73.667969 85.378906 73.925781 85.296875 74.1875 C 85.273438 74.261719 85.25 74.339844 85.226562 74.417969 C 84.828125 75.640625 83.332031 76.394531 82.320312 77.121094 C 81.808594 77.488281 81.296875 77.863281 80.785156 78.242188 C 80.21875 78.660156 79.648438 79.078125 79.074219 79.492188 C 78.203125 80.117188 77.34375 80.753906 76.480469 81.390625 C 75.550781 82.074219 74.621094 82.761719 73.683594 83.4375 C 72.882812 84.011719 72.089844 84.597656 71.296875 85.183594 C 70.367188 85.871094 69.433594 86.554688 68.496094 87.230469 C 67.617188 87.867188 66.75 88.511719 65.878906 89.15625 C 65.71875 89.269531 65.5625 89.386719 65.40625 89.503906 C 65.261719 89.609375 65.113281 89.71875 64.96875 89.824219 C 64.835938 89.921875 64.703125 90.019531 64.570312 90.117188 C 64.429688 90.222656 64.285156 90.332031 64.148438 90.445312 C 63.535156 90.929688 63.074219 91.019531 62.304688 91.011719 C 62.195312 91.011719 62.085938 91.011719 61.972656 91.015625 C 61.671875 91.015625 61.367188 91.015625 61.066406 91.015625 C 60.742188 91.015625 60.414062 91.015625 60.089844 91.019531 C 59.449219 91.023438 58.8125 91.023438 58.175781 91.023438 C 57.65625 91.023438 57.136719 91.023438 56.617188 91.023438 C 56.542969 91.023438 56.46875 91.023438 56.394531 91.023438 C 56.242188 91.023438 56.09375 91.023438 55.941406 91.023438 C 54.53125 91.027344 53.125 91.027344 51.714844 91.023438 C 50.425781 91.023438 49.140625 91.027344 47.851562 91.03125 C 46.53125 91.039062 45.207031 91.039062 43.882812 91.039062 C 43.140625 91.039062 42.398438 91.039062 41.65625 91.042969 C 41.023438 91.046875 40.390625 91.046875 39.757812 91.042969 C 39.4375 91.042969 39.117188 91.042969 38.792969 91.046875 C 37.34375 91.058594 36.34375 91.039062 35.277344 90 C 35.128906 89.886719 34.980469 89.777344 34.828125 89.671875 C 34.695312 89.574219 34.5625 89.472656 34.425781 89.375 C 34.355469 89.320312 34.28125 89.265625 34.203125 89.210938 C 33.976562 89.042969 33.746094 88.871094 33.519531 88.703125 C 32.65625 88.066406 31.796875 87.429688 30.925781 86.804688 C 29.980469 86.125 29.046875 85.433594 28.113281 84.742188 C 27.253906 84.109375 26.398438 83.480469 25.535156 82.859375 C 24.953125 82.441406 24.378906 82.019531 23.804688 81.59375 C 23.3125 81.230469 22.8125 80.867188 22.316406 80.507812 C 21.371094 79.828125 20.4375 79.136719 19.5 78.445312 C 19.277344 78.285156 19.058594 78.121094 18.835938 77.957031 C 18.726562 77.878906 18.726562 77.878906 18.617188 77.796875 C 18.050781 77.378906 17.480469 76.964844 16.90625 76.554688 C 16.777344 76.460938 16.648438 76.367188 16.523438 76.273438 C 16.351562 76.148438 16.175781 76.03125 15.996094 75.917969 C 15.152344 75.351562 14.839844 74.769531 14.570312 73.796875 C 14.527344 73.652344 14.484375 73.507812 14.441406 73.367188 C 14.339844 73.042969 14.246094 72.722656 14.148438 72.398438 C 13.964844 71.796875 13.769531 71.199219 13.574219 70.601562 C 13.519531 70.4375 13.519531 70.4375 13.464844 70.269531 C 13.386719 70.042969 13.3125 69.820312 13.238281 69.59375 C 12.617188 67.707031 12.007812 65.816406 11.40625 63.921875 C 10.847656 62.179688 10.277344 60.4375 9.707031 58.699219 C 9.054688 56.714844 8.410156 54.730469 7.773438 52.738281 C 7.734375 52.605469 7.734375 52.605469 7.6875 52.46875 C 7.636719 52.300781 7.582031 52.128906 7.527344 51.960938 C 7.363281 51.441406 7.191406 50.929688 7.003906 50.421875 C 6.824219 49.691406 7.066406 49.085938 7.296875 48.402344 C 7.355469 48.230469 7.410156 48.058594 7.46875 47.886719 C 7.527344 47.703125 7.589844 47.523438 7.652344 47.339844 C 7.78125 46.957031 7.90625 46.574219 8.035156 46.191406 C 8.066406 46.09375 8.066406 46.09375 8.097656 45.996094 C 8.140625 45.867188 8.183594 45.734375 8.226562 45.605469 C 8.292969 45.410156 8.359375 45.210938 8.421875 45.015625 C 8.804688 43.871094 9.171875 42.722656 9.535156 41.574219 C 10.082031 39.859375 10.640625 38.144531 11.203125 36.433594 C 11.746094 34.789062 12.28125 33.144531 12.808594 31.496094 C 12.898438 31.210938 12.988281 30.929688 13.078125 30.648438 C 13.355469 29.789062 13.628906 28.929688 13.898438 28.070312 C 14.023438 27.671875 14.152344 27.273438 14.277344 26.875 C 14.339844 26.6875 14.398438 26.5 14.457031 26.3125 C 14.539062 26.054688 14.621094 25.792969 14.703125 25.535156 C 14.726562 25.460938 14.75 25.382812 14.773438 25.304688 C 15.1875 24.039062 16.777344 23.25 17.828125 22.511719 C 18.910156 21.753906 19.972656 20.972656 21.035156 20.1875 C 21.5625 19.796875 22.097656 19.414062 22.632812 19.03125 C 23.230469 18.605469 23.820312 18.175781 24.414062 17.746094 C 24.625 17.597656 24.835938 17.445312 25.042969 17.292969 C 25.765625 16.773438 26.484375 16.25 27.199219 15.722656 C 27.800781 15.277344 28.410156 14.835938 29.019531 14.402344 C 29.617188 13.976562 30.210938 13.546875 30.804688 13.117188 C 31.015625 12.964844 31.222656 12.816406 31.433594 12.664062 C 32.230469 12.089844 33.019531 11.511719 33.808594 10.929688 C 34.351562 10.53125 34.898438 10.136719 35.445312 9.75 C 35.722656 9.558594 35.722656 9.558594 35.894531 9.398438 C 36.433594 8.925781 36.886719 8.902344 37.585938 8.90625 Z M 37.585938 8.90625 "/>
<path style=" stroke:none;fill-rule:nonzero;fill:rgb(36.470589%,9.019608%,92.156863%);fill-opacity:1;" d="M 20.554688 29.535156 C 35.171875 29.535156 35.171875 29.535156 37.777344 32.128906 C 37.828125 32.175781 37.878906 32.226562 37.933594 32.273438 C 39.203125 33.582031 39.460938 35.511719 39.46875 37.238281 C 39.46875 37.398438 39.46875 37.398438 39.472656 37.558594 C 39.480469 39.449219 38.808594 41.257812 37.488281 42.617188 C 36.988281 43.09375 36.425781 43.445312 35.832031 43.796875 C 35.925781 43.824219 36.019531 43.851562 36.113281 43.882812 C 37.9375 44.4375 39.382812 45.105469 40.742188 46.480469 C 40.785156 46.390625 40.785156 46.390625 40.828125 46.300781 C 42.066406 43.910156 44.304688 42.0625 46.851562 41.203125 C 48.265625 40.777344 49.625 40.519531 51.105469 40.527344 C 51.199219 40.527344 51.199219 40.527344 51.296875 40.527344 C 54.28125 40.542969 57.191406 41.328125 59.417969 43.414062 C 59.597656 43.578125 59.777344 43.730469 59.964844 43.882812 C 61.554688 45.25 62.507812 47.480469 62.683594 49.535156 C 62.867188 52.480469 62.140625 54.984375 60.175781 57.214844 C 59.785156 57.640625 59.347656 57.988281 58.890625 58.332031 C 58.773438 58.425781 58.773438 58.425781 58.652344 58.523438 C 57.929688 59.085938 57.132812 59.453125 56.296875 59.816406 C 56.210938 59.851562 56.128906 59.890625 56.039062 59.929688 C 55.15625 60.292969 54.179688 60.402344 53.242188 60.554688 C 53.140625 60.574219 53.039062 60.59375 52.933594 60.609375 C 49.546875 60.980469 46.035156 60.242188 43.351562 58.101562 C 42.511719 57.390625 41.839844 56.628906 41.203125 55.742188 C 41.167969 55.796875 41.128906 55.851562 41.089844 55.910156 C 39.703125 57.957031 37.984375 59.046875 35.648438 59.722656 C 30.691406 60.585938 25.589844 60.09375 20.554688 60.09375 C 20.554688 50.007812 20.554688 39.925781 20.554688 29.535156 Z M 20.554688 29.535156 "/>
<path style=" stroke:none;fill-rule:nonzero;fill:rgb(36.470589%,9.019608%,92.156863%);fill-opacity:1;" d="M 59.90625 29.535156 C 66.996094 29.535156 74.085938 29.535156 81.390625 29.535156 C 81.390625 31.554688 81.390625 33.570312 81.390625 35.648438 C 78.976562 35.648438 76.5625 35.648438 74.074219 35.648438 C 74.074219 43.714844 74.074219 51.78125 74.074219 60.09375 C 71.78125 60.09375 69.492188 60.09375 67.128906 60.09375 C 67.128906 52.027344 67.128906 43.960938 67.128906 35.648438 C 64.746094 35.648438 62.363281 35.648438 59.90625 35.648438 C 59.90625 33.632812 59.90625 31.613281 59.90625 29.535156 Z M 59.90625 29.535156 "/>
<path style=" stroke:none;fill-rule:nonzero;fill:rgb(36.470589%,9.019608%,92.156863%);fill-opacity:1;" d="M 18.332031 61.945312 C 37.917969 61.945312 57.503906 61.945312 77.683594 61.945312 C 77.683594 63.167969 77.683594 64.390625 77.683594 65.648438 C 58.097656 65.648438 38.511719 65.648438 18.332031 65.648438 C 18.332031 64.425781 18.332031 63.203125 18.332031 61.945312 Z M 18.332031 61.945312 "/>
<path style=" stroke:none;fill-rule:nonzero;fill:rgb(21.960784%,70.588237%,99.607843%);fill-opacity:1;" d="M 54.105469 47.003906 C 55.046875 47.769531 55.59375 48.804688 55.742188 50 C 55.851562 51.351562 55.535156 52.621094 54.664062 53.675781 C 53.898438 54.488281 52.9375 54.988281 51.8125 55.035156 C 51.640625 55.039062 51.46875 55.035156 51.296875 55.035156 C 51.210938 55.035156 51.125 55.035156 51.039062 55.039062 C 49.871094 55.03125 48.890625 54.621094 48.03125 53.824219 C 47.132812 52.867188 46.800781 51.695312 46.8125 50.410156 C 46.855469 49.15625 47.355469 48.050781 48.269531 47.1875 C 49.964844 45.785156 52.316406 45.746094 54.105469 47.003906 Z M 54.105469 47.003906 "/>
<path style=" stroke:none;fill-rule:nonzero;fill:rgb(21.960784%,70.588237%,99.607843%);fill-opacity:1;" d="M 27.5 47.5 C 32.402344 47.5 32.402344 47.5 33.832031 48.542969 C 34.714844 49.46875 34.863281 50.460938 34.84375 51.703125 C 34.800781 52.175781 34.675781 52.546875 34.445312 52.964844 C 34.414062 53.023438 34.382812 53.082031 34.351562 53.140625 C 33.886719 53.910156 32.96875 54.324219 32.128906 54.535156 C 30.832031 54.722656 30.832031 54.722656 27.5 54.722656 C 27.5 52.339844 27.5 49.957031 27.5 47.5 Z M 27.5 47.5 "/>
<path style=" stroke:none;fill-rule:nonzero;fill:rgb(21.960784%,70.19608%,99.607843%);fill-opacity:1;" d="M 27.5 34.90625 C 30.652344 34.90625 30.652344 34.90625 31.96875 35.949219 C 32.632812 36.621094 32.71875 37.398438 32.722656 38.289062 C 32.707031 39.136719 32.496094 39.828125 31.914062 40.464844 C 30.695312 41.546875 29.03125 41.480469 27.5 41.480469 C 27.5 39.3125 27.5 37.144531 27.5 34.90625 Z M 27.5 34.90625 "/>
</g>
</svg>
